:SAMPLES-PER-SECOND 30
:FULLY-SPECIFIED
:DEGREES
669
root  72.6304 29.5949 6.73268 171.469 67.2573 55.9944
RightUpLeg  -162.133 -16.7896 4.67995
RightLeg  50.6575 2.71932 3.19413
RightFoot  -3.87622 0.299356 -4.98344
RightToes  3.49245e-010 0 -3.6325e-017
Spine  -98.8754 -27.1235 -18.1376
Spine1  38.5209 -10.6046 6.98695
HEad  -26.4995 24.4235 42.7359
LeftShoulder1  0.81987 -3.90773 -2.97457
LeftArm  -69.7191 -67.4612 2.90518
LeftForeArm  -5.79711 -18.8874 -1.40817
LeftHand  -0.0598763 7.47917 -1.0202
RightShoulder  -0.0724386 2.81171 -11.0932
RightArm  -72.1875 54.6503 -5.05925
RightForeArm  -21.5892 18.0533 0.0863362
RightHand  -0.0275433 9.14379 -0.613642
LeftUpLeg  -137.386 -20.3295 -29.8659
LeftLeg  34.1662 -4.0575 -2.59543
LeftFoot  -1.36541 0.550551 -6.21897
LeftToes  -5.36635e-011 -6.70219e-011 5.24975e-011
670
root  72.7527 29.3306 6.44942 170.921 67.0102 52.7995
RightUpLeg  -165.243 -16.2219 5.3769
RightLeg  51.3899 3.35993 4.14426
RightFoot  -4.35184 0.27523 -4.98246
RightToes  3.49245e-010 0 -3.6325e-017
Spine  -99.2784 -28.0957 -18.1486
Spine1  37.9974 -11.1816 7.51222
HEad  -26.3282 25.5585 44.8374
LeftShoulder1  0.710997 -3.81016 -1.45478
LeftArm  -76.1226 -67.5646 8.97997
LeftForeArm  -8.77357 -18.4609 -0.666603
LeftHand  -0.106574 8.22381 -2.2777
RightShoulder  -0.191992 2.09366 -13.6274
RightArm  -73.9124 54.6 -6.2779
RightForeArm  -25.267 17.1565 -1.12855
RightHand  -0.0200542 7.95871 -0.565671
LeftUpLeg  -139.592 -22.6818 -31.9251
LeftLeg  36.2932 -5.16639 -3.68294
LeftFoot  -1.68702 0.364128 -4.18619
LeftToes  -5.36635e-011 -6.70219e-011 5.24975e-011
671
root  72.8894 29.0826 6.15581 169.923 66.7298 50.1981
RightUpLeg  -167.515 -15.809 5.95137
RightLeg  52.4587 3.9649 5.14752
RightFoot  -4.79782 0.262584 -5.15464
RightToes  3.49245e-010 0 -3.6325e-017
Spine  -99.0828 -28.5913 -18.0082
Spine1  37.1589 -11.5291 8.05242
HEad  -25.7918 26.1921 46.5418
LeftShoulder1  0.640196 -3.70362 -0.505504
LeftArm  -81.198 -67.1699 14.4994
LeftForeArm  -12.4172 -18.0565 0.018771
LeftHand  -0.179918 8.65008 -4.60591
RightShoulder  -0.316677 2.52826 -15.7652
RightArm  -73.918 53.4628 -7.28601
RightForeArm  -28.2719 16.3526 -2.08282
RightHand  -0.0407198 6.44545 -0.725982
LeftUpLeg  -141.21 -24.2353 -33.2597
LeftLeg  38.7116 -5.59647 -4.40269
LeftFoot  -3.09202 0.269715 -3.48226
LeftToes  -5.36635e-011 -6.70219e-011 5.24975e-011
672
root  73.0275 28.9075 5.87496 170.053 66.4836 47.5608
RightUpLeg  -170.369 -15.2811 6.57321
RightLeg  52.7082 4.45117 5.87757
RightFoot  -4.95048 0.273261 -5.48494
RightToes  3.49245e-010 0 -3.6325e-017
Spine  -100.744 -30.0466 -17.7438
Spine1  36.9453 -12.7673 9.25388
HEad  -25.3101 27.3233 48.3654
LeftShoulder1  0.650454 -3.5024 -0.957667
LeftArm  -88.1645 -66.8864 17.5711
LeftForeArm  -12.1144 -18.6851 -0.22585
LeftHand  -0.224579 8.22976 -6.7948
RightShoulder  -0.399129 2.755 -17.0655
RightArm  -75.1752 52.808 -8.67844
RightForeArm  -29.2157 16.223 -2.28774
RightHand  0.0543171 6.56682 0.17693
LeftUpLeg  -143.226 -26.3591 -34.2766
LeftLeg  40.1288 -6.21274 -5.18687
LeftFoot  -4.10545 0.187753 -2.57929
LeftToes  -5.36635e-011 -6.70219e-011 5.24975e-011
673
root  73.1493 28.8754 5.62021 167.946 67.2514 47.0648
RightUpLeg  -168.941 -15.0108 6.5954
RightLeg  53.2271 4.56394 6.15363
RightFoot  -5.39278 0.225941 -5.03805
RightToes  3.49245e-010 0 -3.6325e-017
Spine  -96.5 -27.9329 -17.5884
Spine1  34.8473 -11.7191 8.93386
HEad  -25.3576 27.8594 51.146
LeftShoulder1  0.600308 -3.45081 -0.207544
LeftArm  -95.4838 -66.4379 19.1508
LeftForeArm  -7.49663 -20.3933 -2.09548
LeftHand  -0.314098 9.46587 -6.94077
RightShoulder  -0.381438 2.61282 -16.8962
RightArm  -79.1272 51.6892 -9.31852
RightForeArm  -26.9417 17.5142 -0.964802
RightHand  0.0405398 7.98492 -0.0237973
LeftUpLeg  -142.96 -25.1533 -34.3094
LeftLeg  41.8247 -5.7524 -5.06519
LeftFoot  -4.9374 0.135069 -1.90109
LeftToes  -5.36635e-011 -6.70219e-011 5.24975e-011
674
root  73.2122 28.8656 5.33981 164.738 68.917 47.9333
RightUpLeg  -165.301 -14.3411 6.7037
RightLeg  54.0304 4.60329 6.40588
RightFoot  -5.8021 0.169124 -4.30923
RightToes  3.49245e-010 0 -3.6325e-017
Spine  -90.6838 -22.3663 -15.9188
Spine1  33.1074 -8.52928 6.55092
HEad  -25.9827 28.6102 53.2271
LeftShoulder1  0.500828 -3.19848 1.10135
LeftArm  -100.496 -65.6075 20.9408
LeftForeArm  -4.67761 -22.2064 -4.24216
LeftHand  -0.195682 8.3676 -5.42249
RightShoulder  -0.342821 2.38257 -16.4301
RightArm  -84.7867 50.0983 -9.3046
RightForeArm  -22.4543 19.3992 1.15996
RightHand  0.0769581 8.56732 0.247855
LeftUpLeg  -142.203 -21.4921 -32.9021
LeftLeg  44.0023 -4.45042 -4.19288
LeftFoot  -6.12475 0.129704 -2.02845
LeftToes  -5.36635e-011 -6.70219e-011 5.24975e-011
675
root  73.1977 29.0014 5.14992 159.831 71.5695 49.1052
RightUpLeg  -159.213 -13.6282 6.21555
RightLeg  54.6425 4.11553 5.77312
RightFoot  -5.99439 0.135539 -3.76252
RightToes  3.49245e-010 0 -3.6325e-017
Spine  -76.6832 -17.9088 -14.0001
Spine1  24.7215 -6.73346 5.8286
HEad  -26.469 29.3178 52.8088
LeftShoulder1  0.457966 -3.08963 1.70937
LeftArm  -102.862 -64.7944 21.3091
LeftForeArm  -3.25327 -24.0658 -5.36822
LeftHand  -0.338149 9.36907 -8.25409
RightShoulder  -0.328525 2.19521 -16.3637
RightArm  -82.8432 49.8936 -10.7329
RightForeArm  -27.2354 18.4783 0.0541786
RightHand  0.14672 8.93271 0.791741
LeftUpLeg  -139.652 -16.6806 -30.8605
LeftLeg  46.1557 -3.56013 -3.42046
LeftFoot  -6.79711 0.112517 -1.81788
LeftToes  -5.36635e-011 -6.70219e-011 5.24975e-011
676
root  72.7896 29.4701 5.08956 145.789 82.7844 58.1624
RightUpLeg  -136.297 -8.2426 5.84902
RightLeg  56.8532 2.3931 3.53249
RightFoot  -6.53907 0.0936554 -3.29211
RightToes  3.49245e-010 0 -3.6325e-017
Spine  -27.3909 -2.19481 -6.46021
Spine1  -4.69414 -1.08607 3.7744
HEad  -26.845 30.2539 52.7145
LeftShoulder1  0.420501 -2.86743 2.09834
LeftArm  -103.186 -64.4831 22.4205
LeftForeArm  -2.95283 -25.9309 -5.71565
LeftHand  -0.434442 11.8157 -6.28624
RightShoulder  -0.326357 2.09796 -16.4355
RightArm  -81.7669 49.5648 -11.9333
RightForeArm  -29.7651 18.0897 -0.34917
RightHand  0.116408 8.613 0.572467
LeftUpLeg  -130.24 2.08099 -23.1884
LeftLeg  52.9392 -1.27912 -1.39574
LeftFoot  -7.32597 0.121553 -2.20909
LeftToes  -5.36635e-011 -6.70219e-011 5.24975e-011
677
root  72.8291 29.3447 4.77129 155.471 83.4767 66.2264
RightUpLeg  -137.994 -8.29455 7.84994
RightLeg  57.0551 2.69795 4.04576
RightFoot  -6.84003 0.0663129 -2.85201
RightToes  3.49245e-010 0 -3.6325e-017
Spine  -29.7357 -1.82737 -3.10347
Spine1  -3.71437 -1.23724 2.13748
HEad  -27.5831 30.118 51.3306
LeftShoulder1  0.432588 -2.75803 1.75059
LeftArm  -102.379 -64.3834 23.2783
LeftForeArm  -3.00967 -26.5754 -5.86702
LeftHand  -0.209911 10.4785 -3.24356
RightShoulder  -0.341117 2.096 -16.7409
RightArm  -82.6376 49.3867 -12.3741
RightForeArm  -28.3758 18.5131 0.198636
RightHand  0.241142 9.08243 1.53464
LeftUpLeg  -131.847 1.05366 -21.4142
LeftLeg  53.4653 -1.04145 -1.01723
LeftFoot  -7.63404 0.11808 -2.22849
LeftToes  -5.36635e-011 -6.70219e-011 5.24975e-011
678
root  72.7013 29.2299 4.57014 170.558 86.1346 82.8589
RightUpLeg  -136.537 -6.7869 10.2643
RightLeg  57.5181 2.82724 4.33534
RightFoot  -7.22258 0.035118 -2.34766
RightToes  3.49245e-010 0 -3.6325e-017
Spine  -27.4225 0.297428 1.04441
Spine1  -4.46743 -0.6569 0.731979
HEad  -28.6303 29.6964 49.6836
LeftShoulder1  0.425782 -2.77917 1.89916
LeftArm  -101.505 -64.2992 23.7901
LeftForeArm  -4.86724 -25.8972 -5.80375
LeftHand  -0.00766002 10.4082 1.01044
RightShoulder  -0.336534 1.99737 -16.7729
RightArm  -83.136 49.5691 -12.3006
RightForeArm  -29.6123 18.8579 0.728838
RightHand  0.222191 9.30102 1.35031
LeftUpLeg  -132.541 3.05672 -18.6994
LeftLeg  55.1072 -0.824829 -0.767196
LeftFoot  -7.64879 0.108463 -1.95252
LeftToes  -5.36635e-011 -6.70219e-011 5.24975e-011
679
root  72.7062 29.3948 4.43291 171.251 86.906 82.7591
RightUpLeg  -136.3 -6.1157 10.259
RightLeg  56.0087 2.86422 4.13964
RightFoot  -6.48581 0.047477 -2.15196
RightToes  3.49245e-010 0 -3.6325e-017
Spine  -28.4798 0.818652 1.14714
Spine1  -3.62631 -0.616764 1.5896
HEad  -29.8146 28.802 46.6543
LeftShoulder1  0.440358 -2.66651 1.49161
LeftArm  -101.146 -64.215 23.3644
LeftForeArm  -6.54231 -25.625 -5.82446
LeftHand  0.0115622 10.4652 1.5115
RightShoulder  -0.355721 1.99889 -17.1716
RightArm  -86.8877 49.4115 -11.742
RightForeArm  -26.1615 20.5158 2.90203
RightHand  0.165767 9.19429 0.922123
LeftUpLeg  -133.04 3.31326 -18.462
LeftLeg  54.3356 -0.776745 -0.667308
LeftFoot  -7.05803 0.0949904 -1.40283
LeftToes  -5.36635e-011 -6.70219e-011 5.24975e-011
680
root  72.7604 29.5285 4.43736 157.773 86.533 68.9637
RightUpLeg  -136.139 -6.2852 9.35125
RightLeg  55.1953 2.87482 4.02975
RightFoot  -6.0602 0.0602107 -2.19298
RightToes  3.49245e-010 0 -3.6325e-017
Spine  -29.6516 0.358307 -0.0112783
Spine1  -2.54242 -0.536788 1.95759
HEad  -31.1641 27.2734 43.8847
LeftShoulder1  0.419937 -2.55468 1.72397
LeftArm  -99.8553 -64.3137 22.3576
LeftForeArm  -7.20893 -26.0712 -5.9612
LeftHand  0.0950055 10.4126 3.33565
RightShoulder  -0.353123 2.03307 -17.0712
RightArm  -88.0779 48.6685 -10.3722
RightForeArm  -24.0878 22.6334 5.3511
RightHand  -0.00930513 9.26213 -0.47767
LeftUpLeg  -132.657 3.05404 -19.2978
LeftLeg  53.6955 -0.660008 -0.473853
LeftFoot  -6.62616 0.0933875 -1.29532
LeftToes  -5.36635e-011 -6.70219e-011 5.24975e-011
681
root  72.7286 29.6278 4.37186 165.252 87.4178 76.5051
RightUpLeg  -135.512 -5.70108 10.0437
RightLeg  54.4361 2.90797 3.96118
RightFoot  -5.63697 0.0719745 -2.21257
RightToes  3.49245e-010 0 -3.6325e-017
Spine  -30.3079 1.41092 1.93909
Spine1  -1.42497 0.0263158 0.673147
HEad  -32.3825 26.6214 42.0116
LeftShoulder1  0.44469 -2.68703 1.43686
LeftArm  -98.3176 -64.1834 20.7081
LeftForeArm  -8.58826 -26.9987 -6.24705
LeftHand  0.0660934 10.2625 2.93199
RightShoulder  -0.362371 2.17438 -17.0734
RightArm  -86.3385 47.2671 -8.81503
RightForeArm  -23.1018 25.6661 6.67192
RightHand  0.0642635 9.77693 0.0859123
LeftUpLeg  -132.745 3.57907 -18.4097
LeftLeg  53.2894 -0.469252 -0.190811
LeftFoot  -6.16334 0.0971539 -1.35381
LeftToes  -5.36635e-011 -6.70219e-011 5.24975e-011
